# xmcd
#
# Track frame offsets:
#	150
#	9810
#	28590
#	61488
#	116854
#	151314
#	187690
#
# Disc length: 3307 seconds
#
# Revision: 0
# Processed by: cddbd v1.5.2PL0 Copyright (c) Steve Scherf et al.
# Submitted via: audiograbber 1.83.01
#
DISCID=4a0ce907
DTITLE=Grateful Dead - 93-12-17 Oakland Coliseum Arena, Oakland CA
DYEAR=1900
DGENRE=
TTITLE0=Tuning
TTITLE1=Help On The Way
TTITLE2=Slipknot!
TTITLE3=Franklin's Tower
TTITLE4=Saint Of Circumstance
TTITLE5=Crazy Fingers
TTITLE6=Corrina
EXTD=
EXTT0=
EXTT1=
EXTT2=
EXTT3=
EXTT4=
EXTT5=
EXTT6=
PLAYORDER=
